<?xml version="1.0" encoding="utf-8"?>
<!-- Generator: Adobe Illustrator 15.0.0, SVG Export Plug-In . SVG Version: 6.00 Build 0)  -->
<!DOCTYPE svg PUBLIC "-//W3C//DTD SVG 1.1//EN" "http://www.w3.org/Graphics/SVG/1.1/DTD/svg11.dtd">
<svg version="1.1" id="레이어_1" xmlns="http://www.w3.org/2000/svg" xmlns:xlink="http://www.w3.org/1999/xlink" x="0px"
	 y="0px" width="142.452px" height="182.241px" viewBox="0.132 -0.053 142.452 182.241"
	 enable-background="new 0.132 -0.053 142.452 182.241" xml:space="preserve">
<g id="레이어_2" display="none">
	<rect x="4.766" y="5.266" display="inline" fill="#6D6D6D" width="155.5" height="122.5"/>
</g>
<g id="레이어_1_1_">
	
		<circle fill="none" stroke="#FFFFFF" stroke-width="3.5" stroke-linecap="round" stroke-miterlimit="10" cx="19.024" cy="18.089" r="10.392"/>
	
		<line fill="none" stroke="#FFFFFF" stroke-width="3.5" stroke-linecap="round" stroke-miterlimit="10" x1="25.928" y1="26.032" x2="33.153" y2="33.255"/>
	
		<line fill="none" stroke="#FFFFFF" stroke-width="3.5" stroke-linecap="round" stroke-miterlimit="10" x1="82.826" y1="9.269" x2="111.701" y2="9.269"/>
	
		<line fill="none" stroke="#FFFFFF" stroke-width="3.5" stroke-linecap="round" stroke-miterlimit="10" x1="89.951" y1="19.956" x2="111.701" y2="19.956"/>
	
		<line fill="none" stroke="#FFFFFF" stroke-width="3.5" stroke-linecap="round" stroke-miterlimit="10" x1="82.826" y1="30.644" x2="111.701" y2="30.644"/>
	
		<circle fill="none" stroke="#FFFFFF" stroke-width="2.5" stroke-linecap="round" stroke-miterlimit="10" cx="16.541" cy="53.722" r="7.908"/>
	
		<line fill="none" stroke="#FFFFFF" stroke-width="2.5" stroke-linecap="round" stroke-miterlimit="10" x1="21.794" y1="59.767" x2="27.292" y2="65.265"/>
	
		<line fill="none" stroke="#FFFFFF" stroke-width="2.5" stroke-linecap="round" stroke-miterlimit="10" x1="89.076" y1="47.386" x2="111.701" y2="47.386"/>
	
		<line fill="none" stroke="#FFFFFF" stroke-width="2.5" stroke-linecap="round" stroke-miterlimit="10" x1="94.658" y1="55.761" x2="111.701" y2="55.761"/>
	
		<line fill="none" stroke="#FFFFFF" stroke-width="2.5" stroke-linecap="round" stroke-miterlimit="10" x1="89.076" y1="64.134" x2="111.701" y2="64.134"/>
</g>
<g id="레이어_4">
	<circle fill="#FFFFFF" cx="42.601" cy="139.719" r="42.469"/>
</g>
<g id="레이어_3">
	<path fill="#00B4FF" d="M37.803,169.25c-0.829,0-1.5-0.672-1.5-1.5v-46.271l-17.332,17.332c-0.586,0.586-1.535,0.586-2.121,0
		s-0.586-1.535,0-2.121l19.892-19.893c0.428-0.43,1.073-0.559,1.635-0.324c0.561,0.231,0.926,0.778,0.926,1.385v49.894
		C39.303,168.578,38.631,169.25,37.803,169.25z"/>
	<g>
		<path fill="#4C4C4C" d="M49.262,131.898h-2.59v-1.164h6.584v1.164h-2.603v7.664h-1.392L49.262,131.898L49.262,131.898z"/>
		<path fill="#4C4C4C" d="M53.967,135.113c0-2.844,1.571-4.547,3.838-4.547s3.85,1.703,3.85,4.547c0,2.842-1.583,4.604-3.85,4.604
			S53.967,137.955,53.967,135.113z M60.227,135.113c0-2.075-0.96-3.336-2.423-3.336s-2.411,1.261-2.411,3.336
			c0,2.074,0.948,3.394,2.411,3.394S60.227,137.188,60.227,135.113z"/>
		<path fill="#4C4C4C" d="M63.495,130.734h2.675c1.967,0,3.37,0.673,3.37,2.662c0,1.933-1.403,2.819-3.322,2.819h-1.331v3.347
			h-1.392V130.734z M66.086,135.102c1.415,0,2.087-0.539,2.087-1.703s-0.731-1.547-2.135-1.547h-1.151v3.25H66.086z"/>
	</g>
</g>
</svg>
