<svg version="1.1" xmlns="http://www.w3.org/2000/svg" xmlns:xlink="http://www.w3.org/1999/xlink" x="0px" y="0px" viewBox="0 0 120 28" aria-hidden="true" xml:space="preserve" tabindex="-1" width="1903"  height="444" >    
				<defs tabindex="-1"> 
				    <path id="wave" d="M 0,10 C 30,10 30,15 60,15 90,15 90,10 120,10 150,10 150,15 180,15 210,15 210,10 240,10 v 28 h -240 z" tabindex="-1"></path>
				<path id="wave" d="M 0,10 C 30,10 30,15 60,15 90,15 90,10 120,10 150,10 150,15 180,15 210,15 210,10 240,10 v 28 h -240 z" tabindex="-1"></path></defs> 
				<use id="wave1" class="wave" xlink:href="#wave" x="0" y="1" tabindex="-1" fill="#FFFFFF"></use>
			</svg>